<?xml version="1.0" standalone="no"?>
<!DOCTYPE svg PUBLIC "-//W3C//DTD SVG 20010904//EN"
 "http://www.w3.org/TR/2001/REC-SVG-20010904/DTD/svg10.dtd">
<svg version="1.0" xmlns="http://www.w3.org/2000/svg"
 width="512.000000pt" height="512.000000pt" viewBox="0 0 512.000000 512.000000"
 preserveAspectRatio="xMidYMid meet">

<g transform="translate(0.000000,512.000000) scale(0.100000,-0.100000)"
fill="#000000" stroke="none">
<path d="M2145 5109 c-558 -72 -1002 -462 -1159 -1021 -39 -136 -46 -247 -46
-729 l0 -467 -67 -6 c-204 -21 -347 -132 -403 -315 -19 -61 -20 -98 -20 -1125
0 -854 3 -1071 14 -1111 44 -168 178 -293 345 -325 35 -6 559 -10 1505 -10
1605 0 1524 -3 1635 65 93 56 164 143 199 244 15 41 17 154 20 1091 2 652 -1
1069 -7 1108 -30 192 -183 345 -373 372 -35 5 -487 10 -1005 10 l-943 0 0 462
c0 403 2 469 17 522 23 84 58 142 123 207 187 189 480 184 661 -9 99 -105 126
-178 139 -371 9 -147 23 -197 75 -275 48 -72 104 -121 182 -158 245 -117 534
9 616 269 25 76 29 159 18 303 -28 350 -155 631 -395 875 -294 297 -721 446
-1131 394z m443 -283 c209 -58 363 -148 515 -302 193 -195 300 -447 314 -740
7 -148 -1 -185 -50 -241 -54 -62 -137 -80 -214 -48 -86 36 -108 81 -118 240
-9 148 -32 243 -85 343 -99 191 -265 324 -470 379 -98 26 -263 23 -365 -6
-237 -66 -421 -246 -504 -489 l-26 -77 -3 -497 -3 -498 -190 0 -189 0 0 479
c0 526 4 576 60 738 59 169 152 313 287 444 127 123 279 213 443 263 135 40
175 45 345 41 134 -3 175 -7 253 -29z m1220 -2217 c26 -13 54 -38 70 -62 l27
-41 3 -1049 c2 -1010 2 -1050 -17 -1091 -10 -24 -36 -56 -57 -72 l-37 -29
-1461 -3 c-804 -1 -1476 0 -1494 3 -38 7 -96 54 -120 99 -16 29 -17 111 -17
1071 0 572 3 1052 7 1067 12 40 57 89 103 109 38 18 105 19 1494 19 l1455 0
44 -21z"/>
<path d="M2190 2364 c-166 -35 -323 -158 -392 -304 -46 -97 -59 -154 -59 -255
0 -45 5 -104 12 -131 18 -76 73 -184 123 -240 l45 -51 3 -394 c3 -432 1 -418
65 -460 26 -17 53 -19 316 -19 315 0 325 2 366 59 20 28 21 40 21 415 l0 387
50 60 c196 235 184 565 -28 776 -141 141 -332 198 -522 157z m227 -265 c118
-45 195 -150 201 -276 6 -106 -16 -159 -105 -255 l-73 -78 0 -360 0 -360 -130
0 -130 0 0 345 c0 385 -1 392 -65 440 -52 41 -93 104 -111 176 -20 77 -13 134
27 216 69 143 234 208 386 152z"/>
<path d="M4344 3909 c-317 -182 -343 -199 -359 -229 -46 -89 24 -198 120 -187
60 7 511 270 542 316 41 60 23 145 -37 176 -61 31 -95 22 -266 -76z"/>
<path d="M4034 3211 c-63 -38 -81 -98 -49 -165 18 -37 0 -25 290 -193 199
-115 236 -133 274 -133 37 0 49 6 82 39 33 33 39 45 39 81 0 46 -21 89 -54
110 -11 8 -124 74 -251 147 -248 143 -270 151 -331 114z"/>
</g>
</svg>
