<?xml version="1.0" standalone="no"?>
<!DOCTYPE svg PUBLIC "-//W3C//DTD SVG 20010904//EN"
 "http://www.w3.org/TR/2001/REC-SVG-20010904/DTD/svg10.dtd">
<svg version="1.0" xmlns="http://www.w3.org/2000/svg"
 width="512.000000pt" height="512.000000pt" viewBox="0 0 512.000000 512.000000"
 preserveAspectRatio="xMidYMid meet">

<g transform="translate(0.000000,512.000000) scale(0.100000,-0.100000)"
fill="#000000" stroke="none">
<path d="M1664 4812 c-28 -10 -68 -31 -87 -48 -59 -48 -1006 -1232 -1035
-1293 -51 -109 -26 -245 61 -329 37 -35 2470 -1779 2586 -1854 58 -36 123 -38
173 -5 19 13 361 285 761 605 451 361 732 593 742 611 21 41 19 109 -4 146
-12 20 -529 400 -1465 1075 -795 575 -1469 1058 -1497 1074 -66 38 -160 45
-235 18z m2177 -2115 c39 -26 69 -79 69 -122 0 -43 -30 -96 -69 -122 -71 -48
-175 -20 -213 57 -50 98 21 210 132 210 32 0 58 -7 81 -23z"/>
<path d="M1125 2258 c-86 -122 -97 -164 -59 -239 7 -15 43 -48 80 -74 36 -26
62 -51 57 -55 -113 -101 -261 -181 -402 -216 -79 -20 -131 -26 -298 -31 l-203
-6 0 182 c0 162 -2 186 -20 221 -23 45 -80 80 -130 80 -50 0 -107 -35 -130
-80 -20 -38 -20 -57 -20 -835 0 -778 0 -797 20 -835 23 -45 80 -80 130 -80 50
0 107 35 130 80 18 35 20 59 20 203 l0 163 233 12 c174 8 262 18 352 36 375
79 684 243 965 512 l96 92 89 -61 c82 -56 95 -62 142 -62 66 0 91 18 167 124
58 81 59 83 40 100 -25 24 -1169 840 -1187 847 -8 3 -35 -26 -72 -78z"/>
<path d="M4429 1749 c-310 -248 -567 -454 -571 -458 -9 -8 324 -249 364 -263
35 -12 91 -5 124 16 29 20 732 889 756 936 35 68 15 140 -53 189 -23 17 -45
31 -49 31 -4 0 -261 -203 -571 -451z"/>
</g>
</svg>
